<svg width="720" height="424" viewBox="0 0 720 424" fill="none" xmlns="http://www.w3.org/2000/svg">
<path d="M0 43.4976H126.486V213.196H180.859L208.331 287.886H126.486V423.255H0V43.4976Z" fill="black"/>
<path d="M314.813 325.087L352.874 165.692L382.892 273.005L341.97 423.243H267.853L191.09 213.196H274.651L314.784 325.087H314.813ZM554.336 423.243H462.448L358.283 43.4976H457.039L554.336 423.243ZM584.851 30.0477L692.527 0L680.221 43.4976L577.201 403.498L533.341 231.224L584.851 30.0477Z" fill="black"/>
<path d="M709.698 2.28935L720 34.3402L603.243 422.385L592.941 393.768L709.698 2.28935Z" fill="black"/>
<path d="M146.518 119.332V43.4976H331.955V169.412H212.909V119.332H146.518Z" fill="black"/>
</svg>
